<?xml version="1.0" standalone="no"?>
<!DOCTYPE svg PUBLIC "-//W3C//DTD SVG 20010904//EN"
 "http://www.w3.org/TR/2001/REC-SVG-20010904/DTD/svg10.dtd">
<svg version="1.0" xmlns="http://www.w3.org/2000/svg"
 width="900.000000pt" height="900.000000pt" viewBox="0 0 900.000000 900.000000"
 preserveAspectRatio="xMidYMid meet">
<metadata>
Created by potrace 1.14, written by Peter Selinger 2001-2017
</metadata>
<g transform="translate(0.000000,900.000000) scale(0.100000,-0.100000)"
fill="#000000" stroke="none">
<path d="M2249 8996 c-2 -2 -33 -6 -69 -10 -527 -50 -1036 -286 -1428 -660
-352 -337 -591 -763 -696 -1241 -25 -112 -31 -149 -44 -265 -9 -86 -9 -4556 0
-4640 4 -36 10 -76 12 -90 3 -14 7 -41 10 -60 45 -296 162 -605 334 -884 31
-50 60 -95 64 -101 4 -5 40 -53 80 -105 65 -86 261 -292 348 -366 252 -214
573 -385 898 -479 68 -19 138 -37 155 -40 18 -3 46 -8 62 -12 17 -3 39 -7 50
-9 11 -1 38 -6 60 -9 22 -3 74 -10 115 -15 98 -11 4502 -11 4600 0 148 18 208
27 310 51 771 178 1387 698 1705 1439 46 107 115 327 131 415 8 49 12 73 19
110 4 22 9 49 11 60 2 11 7 54 11 95 10 99 10 4554 0 4645 -51 465 -231 902
-522 1265 -58 73 -244 265 -315 326 -332 284 -752 480 -1170 548 -52 8 -111
18 -130 23 -34 7 -4593 17 -4601 9z"/>
</g>
</svg>
