<?xml version="1.0" encoding="UTF-8" standalone="no"?>
<!-- Created with Inkscape (http://www.inkscape.org/) -->

<svg
   xmlns:dc="http://purl.org/dc/elements/1.1/"
   xmlns:cc="http://creativecommons.org/ns#"
   xmlns:rdf="http://www.w3.org/1999/02/22-rdf-syntax-ns#"
   xmlns:svg="http://www.w3.org/2000/svg"
   xmlns="http://www.w3.org/2000/svg"
   xmlns:sodipodi="http://sodipodi.sourceforge.net/DTD/sodipodi-0.dtd"
   xmlns:inkscape="http://www.inkscape.org/namespaces/inkscape"
   version="1.1"
   id="svg2"
   xml:space="preserve"
   width="206.66667"
   height="80"
   viewBox="0 0 206.66667 80"
   sodipodi:docname="disponible-en-google-play-badge.svg"
   inkscape:version="0.92.2 (5c3e80d, 2017-08-06)"><metadata
     id="metadata8"><rdf:RDF><cc:Work
         rdf:about=""><dc:format>image/svg+xml</dc:format><dc:type
           rdf:resource="http://purl.org/dc/dcmitype/StillImage" /><dc:title></dc:title></cc:Work></rdf:RDF></metadata><defs
     id="defs6"><clipPath
       clipPathUnits="userSpaceOnUse"
       id="clipPath18"><path
         d="M 0,60 H 155 V 0 H 0 Z"
         id="path16"
         inkscape:connector-curvature="0" /></clipPath><clipPath
       clipPathUnits="userSpaceOnUse"
       id="clipPath26"><path
         d="M 0,60 H 155 V 0 H 0 Z"
         id="path24"
         inkscape:connector-curvature="0" /></clipPath><linearGradient
       x1="0"
       y1="0"
       x2="1"
       y2="0"
       gradientUnits="userSpaceOnUse"
       gradientTransform="matrix(-16.782402,-16.782402,16.782402,-16.782402,31.799738,41.290287)"
       spreadMethod="pad"
       id="linearGradient68"><stop
         style="stop-opacity:1;stop-color:#00a0ff"
         offset="0"
         id="stop56" /><stop
         style="stop-opacity:1;stop-color:#00a1ff"
         offset="0.00657445"
         id="stop58" /><stop
         style="stop-opacity:1;stop-color:#00beff"
         offset="0.2601"
         id="stop60" /><stop
         style="stop-opacity:1;stop-color:#00d2ff"
         offset="0.5122"
         id="stop62" /><stop
         style="stop-opacity:1;stop-color:#00dfff"
         offset="0.7604"
         id="stop64" /><stop
         style="stop-opacity:1;stop-color:#00e3ff"
         offset="1"
         id="stop66" /></linearGradient><linearGradient
       x1="0"
       y1="0"
       x2="1"
       y2="0"
       gradientUnits="userSpaceOnUse"
       gradientTransform="matrix(-24.196898,0,0,-24.196898,43.834377,29.998548)"
       spreadMethod="pad"
       id="linearGradient92"><stop
         style="stop-opacity:1;stop-color:#ffe000"
         offset="0"
         id="stop84" /><stop
         style="stop-opacity:1;stop-color:#ffbd00"
         offset="0.4087"
         id="stop86" /><stop
         style="stop-opacity:1;stop-color:#ffa500"
         offset="0.7754"
         id="stop88" /><stop
         style="stop-opacity:1;stop-color:#ff9c00"
         offset="1"
         id="stop90" /></linearGradient><linearGradient
       x1="0"
       y1="0"
       x2="1"
       y2="0"
       gradientUnits="userSpaceOnUse"
       gradientTransform="matrix(-22.758278,-22.758278,22.758278,-22.758278,34.82695,27.703901)"
       spreadMethod="pad"
       id="linearGradient112"><stop
         style="stop-opacity:1;stop-color:#ff3a44"
         offset="0"
         id="stop108" /><stop
         style="stop-opacity:1;stop-color:#c31162"
         offset="1"
         id="stop110" /></linearGradient><linearGradient
       x1="0"
       y1="0"
       x2="1"
       y2="0"
       gradientUnits="userSpaceOnUse"
       gradientTransform="matrix(10.162522,-10.162522,10.162522,10.162522,17.297329,49.823822)"
       spreadMethod="pad"
       id="linearGradient138"><stop
         style="stop-opacity:1;stop-color:#32a071"
         offset="0"
         id="stop128" /><stop
         style="stop-opacity:1;stop-color:#2da771"
         offset="0.0685"
         id="stop130" /><stop
         style="stop-opacity:1;stop-color:#15cf74"
         offset="0.4762"
         id="stop132" /><stop
         style="stop-opacity:1;stop-color:#06e775"
         offset="0.8009"
         id="stop134" /><stop
         style="stop-opacity:1;stop-color:#00f076"
         offset="1"
         id="stop136" /></linearGradient><clipPath
       clipPathUnits="userSpaceOnUse"
       id="clipPath148"><path
         d="M 0,60 H 155 V 0 H 0 Z"
         id="path146"
         inkscape:connector-curvature="0" /></clipPath><clipPath
       clipPathUnits="userSpaceOnUse"
       id="clipPath156"><path
         d="M 20.4354,25.8681 H 37.1219 V 17.1387 H 20.4354 Z"
         id="path154"
         inkscape:connector-curvature="0" /></clipPath><clipPath
       clipPathUnits="userSpaceOnUse"
       id="clipPath172"><path
         d="m 19.9726,19.0866 h 0.5373 v -1.551 h -0.5373 z"
         id="path170"
         inkscape:connector-curvature="0" /></clipPath><clipPath
       clipPathUnits="userSpaceOnUse"
       id="clipPath188"><path
         d="M 37.0288,29.9986 H 43.063 V 25.7751 H 37.0288 Z"
         id="path186"
         inkscape:connector-curvature="0" /></clipPath><clipPath
       clipPathUnits="userSpaceOnUse"
       id="clipPath204"><path
         d="M 19.9726,42.8595 H 43.063 V 29.999 H 19.9726 Z"
         id="path202"
         inkscape:connector-curvature="0" /></clipPath></defs><sodipodi:namedview
     pagecolor="#ffffff"
     bordercolor="#666666"
     borderopacity="1"
     objecttolerance="10"
     gridtolerance="10"
     guidetolerance="10"
     inkscape:pageopacity="0"
     inkscape:pageshadow="2"
     inkscape:window-width="1600"
     inkscape:window-height="837"
     id="namedview4"
     showgrid="false"
     inkscape:zoom="0.81602402"
     inkscape:cx="-37.659247"
     inkscape:cy="64.064717"
     inkscape:window-x="-8"
     inkscape:window-y="-8"
     inkscape:window-maximized="1"
     inkscape:current-layer="g14" /><g
     id="g10"
     inkscape:groupmode="layer"
     inkscape:label="disponible-en-google-play-badge"
     transform="matrix(1.3333333,0,0,-1.3333333,0,80)"><g
       id="g12"><g
         id="g14"
         clip-path="url(#clipPath18)"><g
           id="g34"
           transform="translate(140.0001,10.0001)"
           inkscape:export-filename="G:\Users\suitedoalex\sites\disponible-en-google-play-badge-6.png"
           inkscape:export-xdpi="106.66666"
           inkscape:export-ydpi="106.66666"><path
             d="m 0,0 h -125 c -2.75,0 -5,2.25 -5,5 v 30 c 0,2.75 2.25,5 5,5 H 0 c 2.75,0 5,-2.25 5,-5 V 5 C 5,2.25 2.75,0 0,0"
             style="fill:#000000;fill-opacity:1;fill-rule:nonzero;stroke:none"
             id="path36"
             inkscape:connector-curvature="0" /></g><g
           id="g38"
           transform="translate(140.0001,49.9999)"
           inkscape:export-filename="G:\Users\suitedoalex\sites\disponible-en-google-play-badge-6.png"
           inkscape:export-xdpi="106.66666"
           inkscape:export-ydpi="106.66666"><path
             d="m 0,0 h -125 c -2.75,0 -5,-2.25 -5,-5 v -30 c 0,-2.75 2.25,-5 5,-5 H 0 c 2.75,0 5,2.25 5,5 V -5 C 5,-2.25 2.75,0 0,0 m 0,-0.8 c 2.316,0 4.2,-1.884 4.2,-4.2 v -30 c 0,-2.316 -1.884,-4.2 -4.2,-4.2 h -125 c -2.316,0 -4.2,1.884 -4.2,4.2 v 30 c 0,2.316 1.884,4.2 4.2,4.2 H 0"
             style="fill:#a6a6a6;fill-opacity:1;fill-rule:nonzero;stroke:none"
             id="path40"
             inkscape:connector-curvature="0" /></g><path
           d="m 116.936,20 h 1.866 v 12.501 h -1.866 z m 16.807,7.998 -2.139,-5.42 h -0.064 l -2.22,5.42 h -2.01 l 3.329,-7.575 -1.897,-4.214 h 1.945 l 5.131,11.789 z M 123.161,21.42 c -0.612,0 -1.464,0.305 -1.464,1.062 0,0.964 1.061,1.334 1.978,1.334 0.82,0 1.207,-0.177 1.705,-0.418 -0.145,-1.158 -1.142,-1.978 -2.219,-1.978 m 0.225,6.851 c -1.351,0 -2.751,-0.595 -3.329,-1.914 l 1.656,-0.691 c 0.354,0.691 1.013,0.917 1.705,0.917 0.965,0 1.946,-0.579 1.962,-1.609 v -0.128 c -0.338,0.193 -1.061,0.482 -1.946,0.482 -1.785,0 -3.603,-0.981 -3.603,-2.814 0,-1.673 1.464,-2.751 3.104,-2.751 1.255,0 1.947,0.563 2.381,1.223 h 0.064 v -0.965 h 1.801 v 4.793 c 0,2.219 -1.656,3.457 -3.795,3.457 M 111.854,26.476 H 109.2 v 4.285 h 2.654 c 1.395,0 2.187,-1.155 2.187,-2.142 0,-0.969 -0.792,-2.143 -2.187,-2.143 m -0.048,6.025 h -4.471 V 20 h 1.865 v 4.736 h 2.606 c 2.068,0 4.101,1.498 4.101,3.883 0,2.385 -2.033,3.882 -4.101,3.882 M 87.425,21.418 c -1.289,0 -2.368,1.079 -2.368,2.561 0,1.498 1.079,2.594 2.368,2.594 1.273,0 2.271,-1.096 2.271,-2.594 0,-1.482 -0.998,-2.561 -2.271,-2.561 m 2.143,5.88 h -0.065 c -0.419,0.499 -1.224,0.95 -2.239,0.95 -2.127,0 -4.076,-1.868 -4.076,-4.269 0,-2.384 1.949,-4.237 4.076,-4.237 1.015,0 1.82,0.451 2.239,0.967 h 0.065 v -0.613 c 0,-1.627 -0.87,-2.497 -2.272,-2.497 -1.144,0 -1.853,0.822 -2.143,1.515 l -1.627,-0.677 c 0.467,-1.128 1.708,-2.513 3.77,-2.513 2.191,0 4.044,1.289 4.044,4.43 v 7.637 H 89.568 Z M 92.629,20 h 1.869 v 12.502 h -1.869 z m 4.623,4.124 c -0.048,1.643 1.273,2.481 2.223,2.481 0.742,0 1.37,-0.37 1.579,-0.902 z m 5.8,1.418 c -0.354,0.95 -1.434,2.706 -3.641,2.706 -2.191,0 -4.011,-1.723 -4.011,-4.253 0,-2.384 1.804,-4.253 4.22,-4.253 1.95,0 3.078,1.192 3.545,1.885 l -1.45,0.967 c -0.483,-0.709 -1.144,-1.176 -2.095,-1.176 -0.95,0 -1.627,0.435 -2.062,1.288 l 5.687,2.353 z m -45.308,1.401 v -1.804 h 4.317 c -0.129,-1.015 -0.467,-1.756 -0.982,-2.271 -0.629,-0.629 -1.612,-1.322 -3.335,-1.322 -2.659,0 -4.737,2.143 -4.737,4.801 0,2.659 2.078,4.801 4.737,4.801 1.434,0 2.481,-0.564 3.254,-1.289 l 1.273,1.273 c -1.08,1.031 -2.513,1.821 -4.527,1.821 -3.641,0 -6.702,-2.965 -6.702,-6.606 0,-3.641 3.061,-6.605 6.702,-6.605 1.965,0 3.447,0.645 4.607,1.853 1.193,1.192 1.563,2.867 1.563,4.221 0,0.419 -0.032,0.805 -0.097,1.127 z m 11.079,-5.525 c -1.289,0 -2.401,1.063 -2.401,2.577 0,1.531 1.112,2.578 2.401,2.578 1.288,0 2.4,-1.047 2.4,-2.578 0,-1.514 -1.112,-2.577 -2.4,-2.577 m 0,6.83 c -2.353,0 -4.27,-1.788 -4.27,-4.253 0,-2.449 1.917,-4.253 4.27,-4.253 2.352,0 4.269,1.804 4.269,4.253 0,2.465 -1.917,4.253 -4.269,4.253 m 9.313,-6.83 c -1.289,0 -2.401,1.063 -2.401,2.577 0,1.531 1.112,2.578 2.401,2.578 1.289,0 2.4,-1.047 2.4,-2.578 0,-1.514 -1.111,-2.577 -2.4,-2.577 m 0,6.83 c -2.352,0 -4.269,-1.788 -4.269,-4.253 0,-2.449 1.917,-4.253 4.269,-4.253 2.352,0 4.269,1.804 4.269,4.253 0,2.465 -1.917,4.253 -4.269,4.253"
           style="fill:#ffffff;fill-opacity:1;fill-rule:nonzero;stroke:none"
           id="path42"
           inkscape:connector-curvature="0"
           inkscape:export-filename="G:\Users\suitedoalex\sites\disponible-en-google-play-badge-6.png"
           inkscape:export-xdpi="106.66666"
           inkscape:export-ydpi="106.66666" /></g></g><g
       id="g44"><g
         id="g46"><g
           id="g52"><g
             id="g54"><path
               d="m 20.435,42.462 c -0.29,-0.308 -0.462,-0.786 -0.462,-1.405 v 0 -22.116 c 0,-0.62 0.172,-1.097 0.462,-1.405 v 0 l 0.074,-0.072 12.39,12.389 v 0.146 0.147 l -12.39,12.389 z"
               style="fill:url(#linearGradient68);stroke:none"
               id="path70"
               inkscape:connector-curvature="0" /></g></g></g></g><g
       id="g72"><g
         id="g74"><g
           id="g80"><g
             id="g82"><path
               d="m 32.899,30.146 v -0.147 -0.146 l 4.129,-4.132 0.094,0.053 4.893,2.78 c 1.397,0.795 1.397,2.095 0,2.888 v 0 l -4.893,2.781 -0.093,0.053 z"
               style="fill:url(#linearGradient92);stroke:none"
               id="path94"
               inkscape:connector-curvature="0" /></g></g></g></g><g
       id="g96"><g
         id="g98"><g
           id="g104"><g
             id="g106"><path
               d="m 20.435,17.536 c 0.461,-0.487 1.222,-0.548 2.079,-0.062 v 0 l 14.608,8.301 -4.223,4.224 z"
               style="fill:url(#linearGradient112);stroke:none"
               id="path114"
               inkscape:connector-curvature="0" /></g></g></g></g><g
       id="g116"><g
         id="g118"><g
           id="g124"><g
             id="g126"><path
               d="m 20.435,42.462 12.464,-12.463 4.223,4.224 -14.608,8.3 c -0.402,0.229 -0.783,0.337 -1.121,0.337 v 0 c -0.384,0 -0.713,-0.139 -0.958,-0.398"
               style="fill:url(#linearGradient138);stroke:none"
               id="path140"
               inkscape:connector-curvature="0" /></g></g></g></g><g
       id="g142"><g
         id="g144"
         clip-path="url(#clipPath148)"><g
           id="g150"><g
             id="g152" /><g
             id="g164"><g
               clip-path="url(#clipPath156)"
               id="g162"
               style="opacity:0.19999701"><g
                 transform="translate(37.0288,25.8681)"
                 id="g160"><path
                   d="m 0,0 -14.515,-8.247 c -0.812,-0.462 -1.538,-0.431 -2.004,-0.011 l -0.074,-0.075 0.074,-0.072 v 10e-4 c 0.466,-0.42 1.192,-0.451 2.004,0.011 l 14.608,8.3 z"
                   style="fill:#000000;fill-opacity:1;fill-rule:nonzero;stroke:none"
                   id="path158"
                   inkscape:connector-curvature="0" /></g></g></g></g><g
           id="g166"><g
             id="g168" /><g
             id="g180"><g
               clip-path="url(#clipPath172)"
               id="g178"
               style="opacity:0.119995"><g
                 transform="translate(20.4354,17.6817)"
                 id="g176"><path
                   d="M 0,0 C -0.291,0.308 -0.463,0.786 -0.463,1.405 V 1.259 C -0.463,0.64 -0.291,0.162 0,-0.146 l 0.075,0.074 z"
                   style="fill:#000000;fill-opacity:1;fill-rule:nonzero;stroke:none"
                   id="path174"
                   inkscape:connector-curvature="0" /></g></g></g></g><g
           id="g182"><g
             id="g184" /><g
             id="g196"><g
               clip-path="url(#clipPath188)"
               id="g194"
               style="opacity:0.119995"><g
                 transform="translate(42.0147,28.7013)"
                 id="g192"><path
                   d="M 0,0 -4.986,-2.833 -4.893,-2.926 0,-0.146 C 0.699,0.251 1.048,0.774 1.048,1.297 0.989,0.824 0.634,0.36 0,0"
                   style="fill:#000000;fill-opacity:1;fill-rule:nonzero;stroke:none"
                   id="path190"
                   inkscape:connector-curvature="0" /></g></g></g></g><g
           id="g198"><g
             id="g200" /><g
             id="g212"><g
               clip-path="url(#clipPath204)"
               id="g210"
               style="opacity:0.25"><g
                 transform="translate(22.5135,42.3768)"
                 id="g208"><path
                   d="m 0,0 19.501,-11.08 c 0.634,-0.36 0.99,-0.824 1.048,-1.298 0.001,0.523 -0.349,1.047 -1.048,1.444 L 0,0.146 C -1.398,0.94 -2.541,0.281 -2.541,-1.32 v -0.146 c 0,1.6 1.143,2.26 2.541,1.466"
                   style="fill:#ffffff;fill-opacity:1;fill-rule:nonzero;stroke:none"
                   id="path206"
                   inkscape:connector-curvature="0" /></g></g></g></g><g
           id="g214"
           transform="translate(52.0508,37.7373)"><path
             d="M 0,0 H 1.064 C 1.757,0 2.306,0.198 2.711,0.595 3.116,0.992 3.318,1.548 3.318,2.263 3.318,2.972 3.116,3.526 2.711,3.926 2.306,4.325 1.757,4.525 1.064,4.525 H 0 Z m -0.77,-0.737 v 6 h 1.834 c 0.922,0 1.66,-0.278 2.213,-0.834 C 3.83,3.873 4.106,3.151 4.106,2.263 4.106,1.374 3.83,0.652 3.277,0.097 2.724,-0.46 1.986,-0.737 1.064,-0.737 Z"
             style="fill:#ffffff;fill-opacity:1;fill-rule:nonzero;stroke:none"
             id="path216"
             inkscape:connector-curvature="0" /></g><g
           id="g218"
           transform="translate(52.0508,37.7373)"><path
             d="M 0,0 H 1.064 C 1.757,0 2.306,0.198 2.711,0.595 3.116,0.992 3.318,1.548 3.318,2.263 3.318,2.972 3.116,3.526 2.711,3.926 2.306,4.325 1.757,4.525 1.064,4.525 H 0 Z m -0.77,-0.737 v 6 h 1.834 c 0.922,0 1.66,-0.278 2.213,-0.834 C 3.83,3.873 4.106,3.151 4.106,2.263 4.106,1.374 3.83,0.652 3.277,0.097 2.724,-0.46 1.986,-0.737 1.064,-0.737 Z"
             style="fill:none;stroke:#ffffff;stroke-width:0.2;stroke-linecap:butt;stroke-linejoin:miter;stroke-miterlimit:10;stroke-dasharray:none;stroke-opacity:1"
             id="path220"
             inkscape:connector-curvature="0" /></g><path
           d="M 57.239,43 H 58.01 V 37 H 57.239 Z"
           style="fill:#ffffff;fill-opacity:1;fill-rule:nonzero;stroke:#ffffff;stroke-width:0.2;stroke-linecap:butt;stroke-linejoin:miter;stroke-miterlimit:10;stroke-dasharray:none;stroke-opacity:1"
           id="path222"
           inkscape:connector-curvature="0" /><g
           id="g224"
           transform="translate(61.0762,36.8662)"><path
             d="m 0,0 c -0.436,0 -0.861,0.142 -1.277,0.427 -0.417,0.285 -0.69,0.684 -0.818,1.199 L -1.391,1.91 C -1.307,1.581 -1.136,1.303 -0.876,1.077 -0.615,0.851 -0.324,0.737 0,0.737 c 0.335,0 0.622,0.088 0.859,0.264 0.238,0.176 0.356,0.415 0.356,0.717 0,0.335 -0.118,0.593 -0.356,0.775 C 0.622,2.674 0.246,2.843 -0.268,3 c -0.531,0.167 -0.933,0.384 -1.207,0.649 -0.273,0.266 -0.411,0.605 -0.411,1.019 0,0.43 0.171,0.804 0.512,1.122 0.341,0.318 0.785,0.478 1.332,0.478 0.509,0 0.922,-0.127 1.24,-0.381 C 1.517,5.632 1.724,5.355 1.818,5.053 L 1.115,4.76 C 1.064,4.949 0.94,5.126 0.742,5.288 0.544,5.449 0.288,5.53 -0.025,5.53 -0.321,5.53 -0.574,5.448 -0.783,5.283 -0.993,5.118 -1.098,4.913 -1.098,4.668 -1.098,4.444 -1.001,4.255 -0.809,4.102 -0.615,3.948 -0.332,3.81 0.042,3.687 0.338,3.592 0.585,3.5 0.784,3.41 0.982,3.321 1.184,3.202 1.387,3.054 1.591,2.906 1.744,2.722 1.848,2.501 1.951,2.28 2.003,2.025 2.003,1.734 2.003,1.444 1.943,1.184 1.823,0.955 1.703,0.726 1.543,0.544 1.345,0.41 1.146,0.276 0.934,0.174 0.704,0.105 0.475,0.035 0.24,0 0,0"
             style="fill:#ffffff;fill-opacity:1;fill-rule:nonzero;stroke:none"
             id="path226"
             inkscape:connector-curvature="0" /></g><g
           id="g228"
           transform="translate(61.0762,36.8662)"><path
             d="m 0,0 c -0.436,0 -0.861,0.142 -1.277,0.427 -0.417,0.285 -0.69,0.684 -0.818,1.199 L -1.391,1.91 C -1.307,1.581 -1.136,1.303 -0.876,1.077 -0.615,0.851 -0.324,0.737 0,0.737 c 0.335,0 0.622,0.088 0.859,0.264 0.238,0.176 0.356,0.415 0.356,0.717 0,0.335 -0.118,0.593 -0.356,0.775 C 0.622,2.674 0.246,2.843 -0.268,3 c -0.531,0.167 -0.933,0.384 -1.207,0.649 -0.273,0.266 -0.411,0.605 -0.411,1.019 0,0.43 0.171,0.804 0.512,1.122 0.341,0.318 0.785,0.478 1.332,0.478 0.509,0 0.922,-0.127 1.24,-0.381 C 1.517,5.632 1.724,5.355 1.818,5.053 L 1.115,4.76 C 1.064,4.949 0.94,5.126 0.742,5.288 0.544,5.449 0.288,5.53 -0.025,5.53 -0.321,5.53 -0.574,5.448 -0.783,5.283 -0.993,5.118 -1.098,4.913 -1.098,4.668 -1.098,4.444 -1.001,4.255 -0.809,4.102 -0.615,3.948 -0.332,3.81 0.042,3.687 0.338,3.592 0.585,3.5 0.784,3.41 0.982,3.321 1.184,3.202 1.387,3.054 1.591,2.906 1.744,2.722 1.848,2.501 1.951,2.28 2.003,2.025 2.003,1.734 2.003,1.444 1.943,1.184 1.823,0.955 1.703,0.726 1.543,0.544 1.345,0.41 1.146,0.276 0.934,0.174 0.704,0.105 0.475,0.035 0.24,0 0,0 Z"
             style="fill:none;stroke:#ffffff;stroke-width:0.2;stroke-linecap:butt;stroke-linejoin:miter;stroke-miterlimit:10;stroke-dasharray:none;stroke-opacity:1"
             id="path230"
             inkscape:connector-curvature="0" /></g><g
           id="g232"
           transform="translate(64.9561,40.168)"><path
             d="M 0,0 H 1.291 C 1.615,0 1.875,0.108 2.07,0.326 2.266,0.544 2.363,0.784 2.363,1.047 2.363,1.31 2.266,1.55 2.07,1.768 1.875,1.986 1.615,2.095 1.291,2.095 H 0 Z m 0,-3.168 h -0.771 v 6 h 2.045 c 0.508,0 0.949,-0.169 1.32,-0.507 C 2.966,1.987 3.151,1.561 3.151,1.047 3.151,0.533 2.966,0.107 2.594,-0.23 2.223,-0.569 1.782,-0.738 1.274,-0.738 H 0 Z"
             style="fill:#ffffff;fill-opacity:1;fill-rule:nonzero;stroke:none"
             id="path234"
             inkscape:connector-curvature="0" /></g><g
           id="g236"
           transform="translate(64.9561,40.168)"><path
             d="M 0,0 H 1.291 C 1.615,0 1.875,0.108 2.07,0.326 2.266,0.544 2.363,0.784 2.363,1.047 2.363,1.31 2.266,1.55 2.07,1.768 1.875,1.986 1.615,2.095 1.291,2.095 H 0 Z m 0,-3.168 h -0.771 v 6 h 2.045 c 0.508,0 0.949,-0.169 1.32,-0.507 C 2.966,1.987 3.151,1.561 3.151,1.047 3.151,0.533 2.966,0.107 2.594,-0.23 2.223,-0.569 1.782,-0.738 1.274,-0.738 H 0 Z"
             style="fill:none;stroke:#ffffff;stroke-width:0.2;stroke-linecap:butt;stroke-linejoin:miter;stroke-miterlimit:10;stroke-dasharray:none;stroke-opacity:1"
             id="path238"
             inkscape:connector-curvature="0" /></g><g
           id="g240"
           transform="translate(70.1553,38.2778)"><path
             d="M 0,0 C 0.444,-0.45 0.987,-0.674 1.63,-0.674 2.272,-0.674 2.816,-0.45 3.26,0 3.704,0.45 3.927,1.024 3.927,1.722 3.927,2.42 3.704,2.995 3.26,3.444 2.816,3.894 2.272,4.119 1.63,4.119 0.987,4.119 0.444,3.894 0,3.444 -0.443,2.995 -0.666,2.42 -0.666,1.722 -0.666,1.024 -0.443,0.45 0,0 m 3.83,-0.502 c -0.59,-0.607 -1.323,-0.91 -2.2,-0.91 -0.877,0 -1.61,0.303 -2.199,0.91 -0.59,0.606 -0.884,1.347 -0.884,2.224 0,0.877 0.294,1.619 0.884,2.225 0.589,0.606 1.322,0.91 2.199,0.91 0.872,0 1.603,-0.305 2.196,-0.914 C 4.418,3.334 4.714,2.594 4.714,1.722 4.714,0.845 4.419,0.104 3.83,-0.502"
             style="fill:#ffffff;fill-opacity:1;fill-rule:nonzero;stroke:none"
             id="path242"
             inkscape:connector-curvature="0" /></g><g
           id="g244"
           transform="translate(70.1553,38.2778)"><path
             d="M 0,0 C 0.444,-0.45 0.987,-0.674 1.63,-0.674 2.272,-0.674 2.816,-0.45 3.26,0 3.704,0.45 3.927,1.024 3.927,1.722 3.927,2.42 3.704,2.995 3.26,3.444 2.816,3.894 2.272,4.119 1.63,4.119 0.987,4.119 0.444,3.894 0,3.444 -0.443,2.995 -0.666,2.42 -0.666,1.722 -0.666,1.024 -0.443,0.45 0,0 Z m 3.83,-0.502 c -0.59,-0.607 -1.323,-0.91 -2.2,-0.91 -0.877,0 -1.61,0.303 -2.199,0.91 -0.59,0.606 -0.884,1.347 -0.884,2.224 0,0.877 0.294,1.619 0.884,2.225 0.589,0.606 1.322,0.91 2.199,0.91 0.872,0 1.603,-0.305 2.196,-0.914 C 4.418,3.334 4.714,2.594 4.714,1.722 4.714,0.845 4.419,0.104 3.83,-0.502 Z"
             style="fill:none;stroke:#ffffff;stroke-width:0.2;stroke-linecap:butt;stroke-linejoin:miter;stroke-miterlimit:10;stroke-dasharray:none;stroke-opacity:1"
             id="path246"
             inkscape:connector-curvature="0" /></g><g
           id="g248"
           transform="translate(75.9512,37)"><path
             d="M 0,0 V 6 H 0.938 L 3.855,1.333 H 3.888 L 3.855,2.489 V 6 H 4.626 V 0 H 3.821 L 0.771,4.894 H 0.737 L 0.771,3.737 V 0 Z"
             style="fill:#ffffff;fill-opacity:1;fill-rule:nonzero;stroke:none"
             id="path250"
             inkscape:connector-curvature="0" /></g><g
           id="g252"
           transform="translate(75.9512,37)"><path
             d="M 0,0 V 6 H 0.938 L 3.855,1.333 H 3.888 L 3.855,2.489 V 6 H 4.626 V 0 H 3.821 L 0.771,4.894 H 0.737 L 0.771,3.737 V 0 Z"
             style="fill:none;stroke:#ffffff;stroke-width:0.2;stroke-linecap:butt;stroke-linejoin:miter;stroke-miterlimit:10;stroke-dasharray:none;stroke-opacity:1"
             id="path254"
             inkscape:connector-curvature="0" /></g><path
           d="m 81.951,43 h 0.771 v -6 h -0.771 z"
           style="fill:#ffffff;fill-opacity:1;fill-rule:nonzero;stroke:#ffffff;stroke-width:0.2;stroke-linecap:butt;stroke-linejoin:miter;stroke-miterlimit:10;stroke-dasharray:none;stroke-opacity:1"
           id="path256"
           inkscape:connector-curvature="0" /><g
           id="g258"
           transform="translate(84.8662,37.7373)"><path
             d="M 0,0 H 1.551 C 1.847,0 2.087,0.104 2.271,0.311 2.456,0.517 2.548,0.743 2.548,0.989 2.548,1.235 2.453,1.46 2.263,1.664 2.073,1.867 1.824,1.97 1.517,1.97 H 0 Z M 0,2.69 H 1.399 C 1.69,2.69 1.924,2.786 2.1,2.979 2.275,3.172 2.363,3.383 2.363,3.612 2.363,3.841 2.278,4.051 2.107,4.24 1.937,4.43 1.713,4.525 1.434,4.525 H 0 Z m -0.771,-3.427 v 6 h 2.17 c 0.47,0 0.876,-0.156 1.22,-0.465 C 2.963,4.487 3.135,4.098 3.135,3.629 3.135,3.344 3.061,3.092 2.912,2.874 2.765,2.656 2.567,2.492 2.321,2.38 V 2.347 C 2.617,2.246 2.86,2.073 3.051,1.827 3.24,1.581 3.336,1.296 3.336,0.972 3.336,0.48 3.155,0.073 2.795,-0.251 2.435,-0.575 2.009,-0.737 1.517,-0.737 Z"
             style="fill:#ffffff;fill-opacity:1;fill-rule:nonzero;stroke:none"
             id="path260"
             inkscape:connector-curvature="0" /></g><g
           id="g262"
           transform="translate(84.8662,37.7373)"><path
             d="M 0,0 H 1.551 C 1.847,0 2.087,0.104 2.271,0.311 2.456,0.517 2.548,0.743 2.548,0.989 2.548,1.235 2.453,1.46 2.263,1.664 2.073,1.867 1.824,1.97 1.517,1.97 H 0 Z M 0,2.69 H 1.399 C 1.69,2.69 1.924,2.786 2.1,2.979 2.275,3.172 2.363,3.383 2.363,3.612 2.363,3.841 2.278,4.051 2.107,4.24 1.937,4.43 1.713,4.525 1.434,4.525 H 0 Z m -0.771,-3.427 v 6 h 2.17 c 0.47,0 0.876,-0.156 1.22,-0.465 C 2.963,4.487 3.135,4.098 3.135,3.629 3.135,3.344 3.061,3.092 2.912,2.874 2.765,2.656 2.567,2.492 2.321,2.38 V 2.347 C 2.617,2.246 2.86,2.073 3.051,1.827 3.24,1.581 3.336,1.296 3.336,0.972 3.336,0.48 3.155,0.073 2.795,-0.251 2.435,-0.575 2.009,-0.737 1.517,-0.737 Z"
             style="fill:none;stroke:#ffffff;stroke-width:0.2;stroke-linecap:butt;stroke-linejoin:miter;stroke-miterlimit:10;stroke-dasharray:none;stroke-opacity:1"
             id="path264"
             inkscape:connector-curvature="0" /></g><g
           id="g266"
           transform="translate(89.2412,37)"><path
             d="M 0,0 V 6 H 0.77 V 0.737 H 3.368 V 0 Z"
             style="fill:#ffffff;fill-opacity:1;fill-rule:nonzero;stroke:none"
             id="path268"
             inkscape:connector-curvature="0" /></g><g
           id="g270"
           transform="translate(89.2412,37)"><path
             d="M 0,0 V 6 H 0.77 V 0.737 H 3.368 V 0 Z"
             style="fill:none;stroke:#ffffff;stroke-width:0.2;stroke-linecap:butt;stroke-linejoin:miter;stroke-miterlimit:10;stroke-dasharray:none;stroke-opacity:1"
             id="path272"
             inkscape:connector-curvature="0" /></g><g
           id="g274"
           transform="translate(97.085,42.2627)"><path
             d="m 0,0 h -2.732 v -1.902 h 2.463 V -2.623 H -2.732 V -4.525 H 0 v -0.738 h -3.503 v 6 l 3.503,0 z"
             style="fill:#ffffff;fill-opacity:1;fill-rule:nonzero;stroke:none"
             id="path276"
             inkscape:connector-curvature="0" /></g><g
           id="g278"
           transform="translate(97.085,42.2627)"><path
             d="m 0,0 h -2.732 v -1.902 h 2.463 V -2.623 H -2.732 V -4.525 H 0 v -0.738 h -3.503 v 6 l 3.503,0 z"
             style="fill:none;stroke:#ffffff;stroke-width:0.2;stroke-linecap:butt;stroke-linejoin:miter;stroke-miterlimit:10;stroke-dasharray:none;stroke-opacity:1"
             id="path280"
             inkscape:connector-curvature="0" /></g><g
           id="g282"
           transform="translate(103.8057,42.2627)"><path
             d="m 0,0 h -2.732 v -1.902 h 2.463 V -2.623 H -2.732 V -4.525 H 0 v -0.738 h -3.503 v 6 l 3.503,0 z"
             style="fill:#ffffff;fill-opacity:1;fill-rule:nonzero;stroke:none"
             id="path284"
             inkscape:connector-curvature="0" /></g><g
           id="g286"
           transform="translate(103.8057,42.2627)"><path
             d="m 0,0 h -2.732 v -1.902 h 2.463 V -2.623 H -2.732 V -4.525 H 0 v -0.738 h -3.503 v 6 l 3.503,0 z"
             style="fill:none;stroke:#ffffff;stroke-width:0.2;stroke-linecap:butt;stroke-linejoin:miter;stroke-miterlimit:10;stroke-dasharray:none;stroke-opacity:1"
             id="path288"
             inkscape:connector-curvature="0" /></g><g
           id="g290"
           transform="translate(105.0117,37)"><path
             d="M 0,0 V 6 H 0.938 L 3.854,1.333 H 3.888 L 3.854,2.489 V 6 H 4.626 V 0 H 3.821 L 0.77,4.894 H 0.737 L 0.77,3.737 V 0 Z"
             style="fill:#ffffff;fill-opacity:1;fill-rule:nonzero;stroke:none"
             id="path292"
             inkscape:connector-curvature="0" /></g><g
           id="g294"
           transform="translate(105.0117,37)"><path
             d="M 0,0 V 6 H 0.938 L 3.854,1.333 H 3.888 L 3.854,2.489 V 6 H 4.626 V 0 H 3.821 L 0.77,4.894 H 0.737 L 0.77,3.737 V 0 Z"
             style="fill:none;stroke:#ffffff;stroke-width:0.2;stroke-linecap:butt;stroke-linejoin:miter;stroke-miterlimit:10;stroke-dasharray:none;stroke-opacity:1"
             id="path296"
             inkscape:connector-curvature="0" /></g></g></g></g></svg>